<svg width="711" height="500" viewBox="0 0 711 500" fill="none" xmlns="http://www.w3.org/2000/svg">
<path d="M125 415C125 412.239 127.239 410 130 410H295C297.761 410 300 412.239 300 415V445C300 447.761 297.761 450 295 450H130C127.239 450 125 447.761 125 445V415Z" fill="#4B68FB"/>
<rect y="230" width="300" height="40" rx="5" fill="#4B68FB"/>
<rect x="100" y="50" width="200" height="40" rx="5" fill="#4B68FB"/>
<path fill-rule="evenodd" clip-rule="evenodd" d="M443.75 21C439.242 21 434.856 22.462 431.25 25.1667C427.644 27.8713 425.012 31.6726 423.75 36L350.833 286C349.928 289.105 349.757 292.378 350.336 295.56C350.915 298.742 352.226 301.746 354.167 304.333C356.107 306.921 358.624 309.021 361.516 310.467C364.409 311.914 367.599 312.667 370.833 312.667H451.396L433.479 455.917C432.889 460.578 433.892 465.302 436.325 469.322C438.758 473.342 442.479 476.421 446.883 478.059C451.287 479.698 456.115 479.799 460.584 478.348C465.053 476.896 468.9 473.976 471.5 470.063L638.167 220.063C640.26 216.925 641.462 213.278 641.645 209.511C641.828 205.743 640.985 201.997 639.206 198.672C637.426 195.346 634.778 192.566 631.542 190.628C628.306 188.689 624.605 187.666 620.833 187.667H546.729L598.667 49.1458C599.848 45.9946 600.248 42.604 599.833 39.2643C599.418 35.9246 598.2 32.7352 596.284 29.9689C594.367 27.2025 591.809 24.9417 588.828 23.3797C585.847 21.8178 582.532 21.0013 579.167 21H443.75Z" fill="#5F79FC"/>
</svg>
